<?xml version="1.0" encoding="UTF-8"?> <svg xmlns="http://www.w3.org/2000/svg" id="Clinisys_anchor_symbols_gr_rgb" viewBox="0 0 44 44"><defs><style>.cls-1{fill:#c5c9ca;}.cls-2{fill:none;}</style></defs><rect class="cls-2" width="44" height="44"></rect><path class="cls-1" d="M43.25,7.09L31.62,.45l-9.62,5.5L12.38,.45,.75,7.09v13.32l9.62,5.5v11l11.62,6.64,11.62-6.64v-11l9.62-5.5V7.09ZM4.75,9.41l7.62-4.36,7.62,4.36v8.68l-7.62,4.36-7.62-4.36V9.41Zm24.88,25.18l-7.62,4.36-7.62-4.36v-8.68l7.62-4.36,7.62,4.36v8.68Zm9.62-16.5l-7.62,4.36-7.62-4.36V9.41l7.62-4.36,7.62,4.36v8.68Z"></path></svg> 